<?xml version="1.0" standalone="no"?>
<!DOCTYPE svg PUBLIC "-//W3C//DTD SVG 20010904//EN"
 "http://www.w3.org/TR/2001/REC-SVG-20010904/DTD/svg10.dtd">
<svg version="1.0" xmlns="http://www.w3.org/2000/svg"
 width="260.000000pt" height="260.000000pt" viewBox="0 0 260.000000 260.000000"
 preserveAspectRatio="xMidYMid meet">
<metadata>
Created by potrace 1.14, written by Peter Selinger 2001-2017
</metadata>
<g transform="translate(0.000000,260.000000) scale(0.100000,-0.100000)"
fill="#000000" stroke="none">
<path d="M1588 2436 c-1 -2 -48 -6 -103 -9 -55 -4 -111 -9 -125 -12 -14 -3
-38 -7 -55 -10 -111 -17 -284 -75 -420 -141 -634 -306 -996 -956 -824 -1479
57 -169 135 -282 278 -397 184 -148 419 -222 701 -219 252 2 463 55 705 176
155 78 287 170 407 284 99 94 123 134 122 204 -1 52 -21 82 -68 102 -43 18
-89 8 -206 -45 -194 -88 -422 -150 -685 -186 -87 -12 -278 -10 -345 3 -71 14
-126 38 -134 59 -7 18 14 23 144 29 110 5 207 12 260 20 315 45 557 119 785
239 134 71 214 127 300 211 205 199 265 417 178 637 -23 59 -81 156 -114 193
-15 16 -35 40 -46 51 -33 40 -129 111 -204 151 -132 73 -289 118 -448 129 -42
3 -81 7 -88 9 -6 2 -13 2 -15 1z m17 -606 c127 -62 146 -215 39 -310 -61 -53
-238 -123 -392 -155 -9 -2 -38 -8 -65 -14 -26 -6 -64 -14 -85 -17 -20 -3 -56
-9 -78 -13 -54 -10 -121 -6 -139 9 -57 47 55 235 215 361 180 142 383 198 505
139z"/>
</g>
</svg>
